<svg width="24" height="24" viewBox="0 0 24 24" fill="none" xmlns="http://www.w3.org/2000/svg">
<path d="M12.2375 6.38461C13.125 6.38461 14.2375 5.80483 14.9 5.03179C15.5 4.33121 15.9375 3.35283 15.9375 2.37444C15.9375 2.24158 15.925 2.10871 15.9 2C14.9125 2.03624 13.725 2.64018 13.0125 3.44946C12.45 4.06548 11.9375 5.03179 11.9375 6.02225C11.9375 6.1672 11.9625 6.31214 11.975 6.36046C12.0375 6.37254 12.1375 6.38461 12.2375 6.38461ZM9.1125 21C10.325 21 10.8625 20.2149 12.375 20.2149C13.9125 20.2149 14.25 20.9758 15.6 20.9758C16.925 20.9758 17.8125 19.7921 18.65 18.6325C19.5875 17.3039 19.975 15.9994 20 15.939C19.9125 15.9148 17.375 14.9123 17.375 12.0979C17.375 9.65798 19.375 8.5588 19.4875 8.47425C18.1625 6.63827 16.15 6.58995 15.6 6.58995C14.1125 6.58995 12.9 7.45963 12.1375 7.45963C11.3125 7.45963 10.225 6.63827 8.9375 6.63827C6.4875 6.63827 4 8.59504 4 12.2912C4 14.5861 4.925 17.014 6.0625 18.5842C7.0375 19.9129 7.8875 21 9.1125 21Z" fill="white"/>
</svg>
