<svg width="192" height="192" viewBox="0 0 192 192" fill="none" xmlns="http://www.w3.org/2000/svg">
<g clip-path="url(#clip0_735_4673)">
<rect width="192" height="192" rx="16" fill="#4F8CE2"/>
<path d="M167.623 110.734C164.229 109.991 160.86 109.252 157.507 108.394C157.541 108.364 157.575 108.334 157.609 108.304L157.676 108.245C159.992 106.209 162.376 104.114 164.198 101.416C168.666 94.8002 171.408 87.545 168.616 79.0969C167.69 76.2958 166.174 73.632 163.629 71.7932L162.75 73.0091L163.629 71.7932C161.825 70.4898 160.166 69.0157 158.443 67.4824L158.437 67.4768C157.577 66.712 156.701 65.9323 155.801 65.1729C149.593 59.9311 142.976 57.3235 136.125 56.7968C129.298 56.2718 122.33 57.8194 115.397 60.7365C108.34 63.7055 101.449 67.0501 94.5994 70.3743L94.5817 70.3828C91.5254 71.8661 88.4774 73.3454 85.4167 74.7909L85.4128 74.7928C84.2958 75.3243 83.1944 75.8463 82.105 76.3626L82.1047 76.3628L82.0961 76.3669C77.9225 78.345 73.9229 80.2406 69.9696 82.2347C69.2414 82.6021 68.9032 82.6036 68.7349 82.5688C68.5644 82.5336 68.2496 82.3954 67.7168 81.7647C64.388 77.8249 61.0177 73.922 57.6535 70.0262L57.65 70.0221C55.3083 67.3104 52.9697 64.6022 50.6456 61.8823C49.2935 60.3 47.5398 58.5067 44.7663 58.2567C42.7737 58.0771 40.9822 58.8117 39.789 60.2327C38.6099 61.6369 38.1189 63.5805 38.4013 65.6754C38.7145 67.9997 39.2349 70.2868 39.7372 72.4944L39.7445 72.5262C39.854 73.0077 39.9627 73.4855 40.0693 73.9629C40.358 75.2567 40.6451 76.551 40.9325 77.8465L40.9345 77.8558C42.1708 83.4293 43.4117 89.0233 44.7846 94.5876C44.9158 95.1196 44.9666 95.4888 44.9675 95.7406C44.9678 95.8396 44.9603 95.9037 44.9534 95.9417C44.9387 95.9481 44.9195 95.9557 44.8949 95.9642C44.7266 96.0219 44.4095 96.0804 43.8597 96.082C39.8615 96.0934 35.8647 96.1431 31.8763 96.1926L31.8733 96.1927C28.829 96.2305 25.7895 96.2683 22.7507 96.2891C21.3116 96.299 19.8681 96.275 18.4043 96.2507L18.3767 96.2502C15.7902 96.2071 13.1393 96.163 10.4899 96.3177L10.4376 96.3207L10.3857 96.3274L3.6519 97.1947L2.95497 97.2845L2.57785 97.8774C1.2164 100.018 0.475488 102.276 1.4215 104.225C2.3596 106.157 4.58902 107.014 7.13191 107.334C14.2507 108.23 21.3715 109.108 28.49 109.985L28.5082 109.987C34.3935 110.712 40.2772 111.437 46.1593 112.172C46.4358 112.207 46.7106 112.226 46.943 112.243L46.9593 112.244C47.3681 112.273 47.6912 112.302 47.9649 112.358C46.5473 115.703 44.9939 119.683 46.7276 124.118C48.5714 128.834 51.9821 132.004 56.9741 133.161C60.5923 133.999 64.1202 133.337 67.2581 131.445C71.4003 128.946 73.5843 125.249 74.1446 120.465C91.9967 127.722 108.546 128.616 127.047 123.318C126.99 124.626 127.067 126.069 127.232 127.445C127.511 129.78 128.083 132.243 128.928 133.823C131.299 138.257 135.173 140.75 140.035 141.314C143.794 141.75 147.387 140.752 150.335 138.17C152.84 135.975 154.395 133.431 155.055 130.602C155.586 128.328 155.522 125.943 154.988 123.499C157.2 123.658 159.413 123.789 161.615 123.92L161.618 123.92C167.408 124.263 173.122 124.603 178.755 125.423C181.542 125.829 183.975 125.595 186.168 124.699C188.352 123.808 190.182 122.307 191.84 120.363L192.975 119.032L191.486 118.113L189.121 116.655L189 116.581L188.868 116.53C181.831 113.849 174.699 112.285 167.672 110.745L167.623 110.734ZM44.9418 95.9874C44.9418 95.9874 44.942 95.9869 44.9425 95.9857L44.9418 95.9874ZM44.9905 95.9231C44.9928 95.9212 44.9941 95.9204 44.9942 95.9204C44.9944 95.9204 44.9932 95.9213 44.9905 95.9231Z" fill="white" stroke="#4F8CE2" stroke-width="3"/>
<path d="M162.787 73.9179L163.275 73.8007L162.888 73.4819C161.67 72.4777 159.921 70.8384 158.307 69.3242L158.302 69.3198C157.165 68.2536 156.094 67.2496 155.332 66.5842C153.911 65.3436 152.381 64.9311 150.51 65.2992C144.064 66.5672 137.664 68.0339 131.472 70.3247C129.772 70.9541 128.18 71.8008 126.844 73.0625C125.284 74.5352 124.181 76.4683 125.052 78.6539C125.984 80.9946 128.214 81.6277 130.493 81.4566C137.193 80.9536 143.679 79.3732 150.11 77.5929C151.82 77.1194 153.516 76.5978 155.209 76.0774L155.21 76.0768C157.727 75.3029 160.235 74.5316 162.787 73.9179ZM120.498 82.9044L120.509 82.8679L120.508 82.83C120.507 82.7398 120.505 82.6494 120.504 82.5587L120.503 82.5234C120.49 81.5823 120.476 80.5733 120.146 79.8087C119.974 79.4114 119.714 79.069 119.32 78.8332C118.929 78.5988 118.427 78.4831 117.795 78.4982C116.677 78.5248 115.872 79.0078 115.327 79.7423C114.79 80.4663 114.515 81.4212 114.412 82.3946C114.401 82.503 114.389 82.6132 114.376 82.7253L114.373 82.7518C114.277 83.625 114.165 84.6319 114.38 85.4787C114.49 85.9139 114.689 86.3184 115.027 86.6451C115.365 86.972 115.827 87.2053 116.438 87.3246C117.097 87.4534 117.646 87.4262 118.108 87.2635C118.571 87.1 118.925 86.8071 119.203 86.4396C119.741 85.7288 120.012 84.7106 120.266 83.7514L120.275 83.719C120.348 83.4431 120.42 83.1704 120.498 82.9044ZM108.95 83.3231L108.895 83.2491L108.805 83.2286C107.349 82.8981 106.319 83.1567 105.573 83.8044C104.846 84.4361 104.428 85.4064 104.108 86.409C103.721 87.6237 103.884 88.9463 105.083 89.7261C106.096 90.385 107.266 90.2588 108.275 89.6009L108.155 89.4173L108.275 89.6009C109.295 88.936 109.906 87.9494 110.036 86.8281C110.165 85.7096 109.812 84.4806 108.95 83.3231ZM96.7056 93.0746L96.7709 93.0926L96.8363 93.0751C98.0536 92.7495 98.844 92.1918 99.4152 91.3354C99.9005 90.6079 100.17 89.8499 100.106 89.1257C100.042 88.3902 99.6366 87.7337 98.8641 87.2149C98.1456 86.7325 97.3951 86.6246 96.7129 86.8243C96.0366 87.0222 95.4542 87.514 95.0425 88.1824C94.4724 89.1081 94.0467 90.1014 94.2067 90.9961C94.3736 91.93 95.1497 92.6475 96.7056 93.0746ZM90.1834 94.275L90.2117 94.2271L90.217 94.1718C90.3004 93.3006 90.2699 92.4653 89.9624 91.8356C89.8057 91.5147 89.5764 91.246 89.257 91.0577C88.9392 90.8704 88.5476 90.7716 88.0786 90.7644C86.3078 90.7374 85.2703 92.0836 84.7204 93.5454C84.2604 94.7681 84.7255 95.9877 85.8392 96.5224C86.3631 96.7739 86.8418 96.8773 87.2851 96.8493C87.7298 96.8213 88.1203 96.6623 88.4683 96.4181C89.1515 95.9387 89.6863 95.1175 90.1834 94.275Z" fill="#4F8CE2" stroke="#4F8CE2" stroke-width="0.5"/>
</g>
<defs>
<clipPath id="clip0_735_4673">
<rect width="192" height="192" rx="16" fill="white"/>
</clipPath>
</defs>
</svg>
