<svg width="256" height="256" viewBox="0 0 256 256" fill="none" xmlns="http://www.w3.org/2000/svg">
<rect width="256" height="256" fill="#4475D2"/>
<path d="M66.8 205.644H32V200.764H46.6V193.564H35.44V173.764H63.36V193.564H52.2V200.764H66.8V205.644ZM57.84 188.684V178.644H40.96V188.684H57.84ZM100.757 189.324H72.0369V173.284H100.357V178.164H77.5569V184.444H100.757V189.324ZM103.597 197.644H88.9969V208.004H83.3969V197.644H68.7969V192.764H103.597V197.644ZM129.474 183.924C129.474 190.044 124.794 194.284 118.434 194.284C112.074 194.284 107.394 190.044 107.394 183.924C107.394 177.764 112.074 173.564 118.434 173.564C124.794 173.564 129.474 177.764 129.474 183.924ZM123.954 183.924C123.954 180.844 121.714 178.444 118.434 178.444C115.154 178.444 112.914 180.844 112.914 183.924C112.914 186.964 115.154 189.404 118.434 189.404C121.714 189.404 123.954 186.964 123.954 183.924ZM131.274 203.484H106.434V198.604H131.274V203.484ZM138.394 208.004H132.874V172.684H138.394V208.004ZM177.031 207.844H162.551C157.751 207.844 154.591 205.604 154.591 201.804C154.591 198.004 157.751 195.764 162.551 195.764H177.031C181.831 195.764 184.991 198.004 184.991 201.804C184.991 205.604 181.831 207.844 177.031 207.844ZM185.871 183.804L183.511 187.724C179.751 186.724 175.911 185.724 172.191 184.404C171.311 184.084 170.511 183.604 169.791 183.084C169.071 183.604 168.231 184.084 167.351 184.404C163.631 185.724 159.831 186.804 156.071 187.884L153.711 183.964C157.511 182.804 161.791 181.604 165.471 180.164C166.071 179.924 166.471 179.604 166.711 179.124H155.271V174.404H166.991V171.444H172.591V174.404H184.311V179.124H172.831C173.071 179.604 173.471 179.924 174.111 180.164C177.791 181.564 182.031 182.724 185.871 183.804ZM187.191 193.804H152.391V189.404H166.991V185.724H172.591V189.404H187.191V193.804ZM176.431 200.324H163.151C161.231 200.324 160.111 200.844 160.111 201.804C160.111 202.764 161.231 203.284 163.151 203.284H176.431C178.351 203.284 179.471 202.764 179.471 201.804C179.471 200.844 178.351 200.324 176.431 200.324ZM220.548 189.324H192.628V173.284H220.548V189.324ZM223.988 197.644H209.388V208.004H203.788V197.644H189.188V192.764H223.988V197.644ZM215.028 184.444V178.164H198.148V184.444H215.028Z" fill="white"/>
<path fill-rule="evenodd" clip-rule="evenodd" d="M213.713 127.246C219.199 128.044 222.902 126.278 226.21 122.398L223.69 120.844C216.303 118.029 208.799 116.384 201.276 114.736C196.705 113.734 192.126 112.73 187.563 111.461C188.34 110.747 189.121 110.061 189.891 109.383C192.409 107.171 194.818 105.053 196.644 102.349C201.274 95.4928 203.912 88.2908 201.159 79.9596C200.321 77.4224 199.036 75.1238 197.043 73.4512C196.845 73.2845 196.639 73.124 196.426 72.9702C194.427 71.5257 192.6 69.8999 190.773 68.2747C189.852 67.4554 188.932 66.6363 187.989 65.8406C175.247 55.0815 161.041 55.2811 146.582 61.3647C139.101 64.5122 131.789 68.0609 124.477 71.6096C121.221 73.1897 117.965 74.7698 114.694 76.3146C113.503 76.8817 112.328 77.4385 111.167 77.9888C106.712 80.0999 102.465 82.113 98.2698 84.2292C96.4291 85.1577 95.2671 84.9178 93.9279 83.3328C90.3857 79.1403 86.7983 74.9861 83.2109 70.8318C80.7159 67.9425 78.2208 65.0531 75.7409 62.1509C74.3249 60.4938 72.8209 59.0457 70.5472 58.8407C67.2929 58.5474 64.989 61.2116 65.4917 64.9412C65.8159 67.3469 66.3572 69.7258 66.8976 72.1009C67.0143 72.6135 67.1309 73.126 67.2452 73.6385C67.5532 75.0184 67.8594 76.3988 68.1656 77.7793C69.4845 83.7253 70.8036 89.6717 72.2622 95.5835C72.8756 98.0698 72.4202 99.1498 69.7291 99.1575C65.4761 99.1696 61.2233 99.2225 56.9705 99.2753C53.7269 99.3157 50.4833 99.356 47.2396 99.3782C45.6841 99.3889 44.1269 99.363 42.5701 99.337C39.7942 99.2908 37.0192 99.2446 34.2555 99.406L27.0794 100.33C24.3024 104.696 25.5732 107.308 30.7835 107.964C38.3675 108.919 45.954 109.854 53.5406 110.788C59.8187 111.562 66.0969 112.335 72.3736 113.12C72.625 113.152 72.8812 113.17 73.1403 113.188C74.1383 113.259 75.1782 113.332 76.1421 114.183C76.0389 114.428 75.9347 114.673 75.8304 114.918C74.2228 118.7 72.5866 122.55 74.2697 126.855C76.0573 131.428 79.2934 134.412 84.0613 135.516C87.4838 136.309 90.8206 135.694 93.8346 133.876C98.3418 131.158 100.447 126.987 100.553 121.207C120.791 129.91 139.233 130.88 160.274 124.35C159.468 127.469 160.273 134.185 161.791 137.026C164.06 141.269 167.718 143.631 172.403 144.175C175.988 144.591 179.361 143.646 182.142 141.209C187.03 136.927 187.994 131.498 186.139 125.384C186.45 125.338 186.702 125.29 186.916 125.25C187.288 125.179 187.546 125.131 187.798 125.149C190.3 125.333 192.807 125.482 195.314 125.63C201.472 125.995 207.631 126.36 213.713 127.246ZM185.112 63.6124C178.246 64.9629 169.764 67.9257 163.186 70.3595C161.395 71.0222 159.734 71.9085 158.344 73.2209C156.709 74.7639 155.632 76.7124 156.498 78.8874C157.428 81.2232 159.652 81.8857 162.03 81.7071C169.143 81.1731 176.034 79.4948 182.884 77.5985C184.704 77.0949 186.508 76.5399 188.312 75.9849C189.998 75.4665 193.785 74.3625 197.043 73.4512C196.845 73.2845 196.639 73.124 196.426 72.9702C194.427 71.5257 192.6 69.8999 190.773 68.2747C189.852 67.4554 188.932 66.6363 187.989 65.8406C187.038 65.0375 186.079 64.2954 185.112 63.6124ZM114.577 97.7882C116.685 98.7999 117.798 97.3025 118.862 95.498C119.038 93.6625 118.704 92.187 116.845 92.1585C115.129 92.1323 114.092 93.4274 113.519 94.9497C113.074 96.1327 113.524 97.2824 114.577 97.7882ZM126.113 94.0972C122.886 93.2111 123.289 91.2422 124.497 89.2802C125.32 87.9436 126.783 87.3831 128.194 88.3306C129.732 89.3631 129.704 90.8602 128.708 92.3528C128.14 93.2044 127.356 93.7646 126.113 94.0972ZM138.226 90.429C140.273 89.0944 140.649 86.5 138.878 84.121C135.897 83.4444 134.862 85.2074 134.185 87.3315C133.794 88.5573 133.973 89.8195 135.115 90.5622C136.088 91.1945 137.218 91.0861 138.226 90.429ZM151.142 83.4409C151.058 83.7282 150.98 84.022 150.902 84.3154C150.346 86.4124 149.795 88.4872 147.122 87.9649C144.681 87.4878 144.928 85.2555 145.139 83.3542C145.152 83.2348 145.165 83.1167 145.177 83.0004C145.391 80.9776 146.311 79.139 148.524 79.0863C151.079 79.0256 151.108 81.0877 151.138 83.1512C151.139 83.2478 151.141 83.3445 151.142 83.4409Z" fill="white"/>
</svg>
